<svg width="36" height="36" viewBox="0 0 36 36" fill="none" xmlns="http://www.w3.org/2000/svg">
<rect width="36" height="36" rx="18" fill="#E7F4F2"/>
<path d="M29.1853 17.6962C29.1525 17.6222 28.3584 15.8606 26.5931 14.0953C24.2409 11.7431 21.27 10.5 18 10.5C14.73 10.5 11.7591 11.7431 9.40687 14.0953C7.64155 15.8606 6.84374 17.625 6.81468 17.6962C6.77203 17.7922 6.75 17.896 6.75 18.0009C6.75 18.1059 6.77203 18.2097 6.81468 18.3056C6.84749 18.3797 7.64155 20.1403 9.40687 21.9056C11.7591 24.2569 14.73 25.5 18 25.5C21.27 25.5 24.2409 24.2569 26.5931 21.9056C28.3584 20.1403 29.1525 18.3797 29.1853 18.3056C29.2279 18.2097 29.25 18.1059 29.25 18.0009C29.25 17.896 29.2279 17.7922 29.1853 17.6962ZM18 21.75C17.2583 21.75 16.5333 21.5301 15.9166 21.118C15.2999 20.706 14.8193 20.1203 14.5354 19.4351C14.2516 18.7498 14.1774 17.9958 14.322 17.2684C14.4667 16.541 14.8239 15.8728 15.3483 15.3483C15.8728 14.8239 16.541 14.4667 17.2684 14.3221C17.9958 14.1774 18.7498 14.2516 19.4351 14.5355C20.1203 14.8193 20.7059 15.2999 21.118 15.9166C21.5301 16.5333 21.75 17.2583 21.75 18C21.75 18.9946 21.3549 19.9484 20.6516 20.6517C19.9484 21.3549 18.9946 21.75 18 21.75Z" fill="#11927F"/>
</svg>
