<svg width="24" height="24" viewBox="0 0 24 24" fill="none" xmlns="http://www.w3.org/2000/svg">
<g clip-path="url(#clip0_272_418)">
<rect width="24" height="24" rx="12" fill="#FDFDFD"/>
<g clip-path="url(#clip1_272_418)">
<path d="M-4.50073 15.9999H27.0784V23.9999H-4.50073V15.9999Z" fill="#1EB53A"/>
<path d="M-4.49927 0H27.0798V8H-4.49927V0Z" fill="#0099B5"/>
<path d="M-4.50073 7.67999H27.0784V16.32H-4.50073V7.67999Z" fill="#CE1126"/>
<path d="M-4.50073 8.1601H27.0784V15.8401H-4.50073V8.1601Z" fill="#FDFDFD"/>
<path d="M5.64482 6.76C6.66946 6.76 7.5001 5.91829 7.5001 4.88C7.5001 3.8417 6.66946 3 5.64482 3C4.62018 3 3.78955 3.8417 3.78955 4.88C3.78955 5.91829 4.62018 6.76 5.64482 6.76Z" fill="#FDFDFD"/>
<path d="M6.26372 6.76C7.28836 6.76 8.11899 5.91829 8.11899 4.88C8.11899 3.8417 7.28836 3 6.26372 3C5.23908 3 4.40845 3.8417 4.40845 4.88C4.40845 5.91829 5.23908 6.76 6.26372 6.76Z" fill="#0099B5"/>
<path d="M8.50339 5.43054L8.40845 5.71917L8.55336 5.7698" fill="#FDFDFD"/>
<path d="M8.5032 5.43054L8.59814 5.71917L8.45323 5.7698" fill="#FDFDFD"/>
<path d="M8.78834 5.64009L8.48803 5.63875L8.48481 5.79351" fill="#FDFDFD"/>
<path d="M8.78954 5.64012L8.54736 5.82094L8.45541 5.69767" fill="#FDFDFD"/>
<path d="M8.21754 5.64017L8.45972 5.82098L8.55167 5.69771" fill="#FDFDFD"/>
<path d="M8.21874 5.64006L8.51905 5.63871L8.52227 5.79347" fill="#FDFDFD"/>
<path d="M8.67958 5.97983L8.58944 5.68983L8.44257 5.7355" fill="#FDFDFD"/>
<path d="M8.68004 5.97971L8.43588 5.80318L8.5241 5.67566" fill="#FDFDFD"/>
<path d="M8.32692 5.98023L8.57122 5.80293L8.48364 5.67586" fill="#FDFDFD"/>
<path d="M8.32689 5.98005L8.41788 5.68995L8.56427 5.73503" fill="#FDFDFD"/>
<path d="M8.50339 4.21521L8.40845 4.50384L8.55336 4.55447" fill="#FDFDFD"/>
<path d="M8.5032 4.21515L8.59814 4.50378L8.45323 4.55441" fill="#FDFDFD"/>
<path d="M8.78834 4.42476L8.48803 4.42342L8.48481 4.57818" fill="#FDFDFD"/>
<path d="M8.78881 4.42479L8.54663 4.60561L8.45468 4.48233" fill="#FDFDFD"/>
<path d="M8.21785 4.42477L8.46003 4.60559L8.55198 4.48232" fill="#FDFDFD"/>
<path d="M8.21904 4.42461L8.51935 4.42327L8.52258 4.57803" fill="#FDFDFD"/>
<path d="M8.68074 4.76484L8.5906 4.47484L8.44373 4.52051" fill="#FDFDFD"/>
<path d="M8.68072 4.76487L8.43655 4.58834L8.52477 4.46082" fill="#FDFDFD"/>
<path d="M8.32789 4.76502L8.57219 4.58772L8.48462 4.46065" fill="#FDFDFD"/>
<path d="M8.32786 4.76502L8.41886 4.47492L8.56525 4.52" fill="#FDFDFD"/>
<path d="M8.50339 3L8.40845 3.28863L8.55336 3.33926" fill="#FDFDFD"/>
<path d="M8.5032 3L8.59814 3.28863L8.45323 3.33926" fill="#FDFDFD"/>
<path d="M8.78834 3.20955L8.48803 3.20821L8.48481 3.36297" fill="#FDFDFD"/>
<path d="M8.78954 3.20958L8.54736 3.3904L8.45541 3.26712" fill="#FDFDFD"/>
<path d="M8.21785 3.20957L8.46003 3.39038L8.55198 3.26711" fill="#FDFDFD"/>
<path d="M8.21904 3.20934L8.51935 3.208L8.52258 3.36276" fill="#FDFDFD"/>
<path d="M8.67774 3.54971L8.58761 3.25971L8.44074 3.30538" fill="#FDFDFD"/>
<path d="M8.67772 3.54958L8.43356 3.37305L8.52178 3.24553" fill="#FDFDFD"/>
<path d="M8.3257 3.55005L8.57 3.37276L8.48242 3.24568" fill="#FDFDFD"/>
<path d="M8.32591 3.54987L8.4169 3.25977L8.5633 3.30485" fill="#FDFDFD"/>
<path d="M9.70066 5.43054L9.60571 5.71917L9.75063 5.7698" fill="#FDFDFD"/>
<path d="M9.70047 5.43054L9.79541 5.71917L9.6505 5.7698" fill="#FDFDFD"/>
<path d="M9.98634 5.64009L9.68603 5.63875L9.6828 5.79351" fill="#FDFDFD"/>
<path d="M9.98607 5.64024L9.74389 5.82106L9.65194 5.69779" fill="#FDFDFD"/>
<path d="M9.41554 5.63976L9.65772 5.82057L9.74967 5.6973" fill="#FDFDFD"/>
<path d="M9.416 5.64009L9.71631 5.63875L9.71954 5.79351" fill="#FDFDFD"/>
<path d="M9.87709 5.98002L9.78695 5.69001L9.64008 5.73569" fill="#FDFDFD"/>
<path d="M9.87731 5.97989L9.63314 5.80336L9.72137 5.67584" fill="#FDFDFD"/>
<path d="M9.52565 5.98041L9.76995 5.80312L9.68237 5.67604" fill="#FDFDFD"/>
<path d="M9.52611 5.98035L9.6171 5.69025L9.76349 5.73533" fill="#FDFDFD"/>
<path d="M9.70066 4.21521L9.60571 4.50384L9.75063 4.55447" fill="#FDFDFD"/>
<path d="M9.70047 4.21515L9.79541 4.50378L9.6505 4.55441" fill="#FDFDFD"/>
<path d="M9.98634 4.4247L9.68603 4.42335L9.6828 4.57811" fill="#FDFDFD"/>
<path d="M9.98607 4.42491L9.74389 4.60573L9.65194 4.48246" fill="#FDFDFD"/>
<path d="M9.41554 4.42448L9.65772 4.6053L9.74967 4.48203" fill="#FDFDFD"/>
<path d="M9.416 4.42482L9.71631 4.42348L9.71954 4.57824" fill="#FDFDFD"/>
<path d="M9.87721 4.76464L9.78708 4.47463L9.6402 4.52031" fill="#FDFDFD"/>
<path d="M9.87749 4.76475L9.63332 4.58822L9.72155 4.4607" fill="#FDFDFD"/>
<path d="M9.52467 4.76489L9.76897 4.5876L9.6814 4.46053" fill="#FDFDFD"/>
<path d="M9.52488 4.76483L9.61588 4.47474L9.76227 4.51982" fill="#FDFDFD"/>
<path d="M9.70066 3L9.60571 3.28863L9.75063 3.33926" fill="#FDFDFD"/>
<path d="M9.70047 3L9.79541 3.28863L9.6505 3.33926" fill="#FDFDFD"/>
<path d="M9.98634 3.20955L9.68603 3.20821L9.6828 3.36297" fill="#FDFDFD"/>
<path d="M9.98607 3.20982L9.74389 3.39064L9.65194 3.26737" fill="#FDFDFD"/>
<path d="M9.41554 3.20921L9.65772 3.39003L9.74967 3.26676" fill="#FDFDFD"/>
<path d="M9.416 3.20955L9.71631 3.20821L9.71954 3.36297" fill="#FDFDFD"/>
<path d="M9.87702 3.54929L9.78689 3.25929L9.64002 3.30496" fill="#FDFDFD"/>
<path d="M9.87725 3.54953L9.63308 3.373L9.72131 3.24548" fill="#FDFDFD"/>
<path d="M9.52412 3.54987L9.76842 3.37257L9.68085 3.2455" fill="#FDFDFD"/>
<path d="M9.52458 3.54962L9.61557 3.25953L9.76197 3.30461" fill="#FDFDFD"/>
<path d="M10.9023 5.43054L10.8074 5.71917L10.9523 5.7698" fill="#FDFDFD"/>
<path d="M10.9021 5.43054L10.9971 5.71917L10.8522 5.7698" fill="#FDFDFD"/>
<path d="M11.1872 5.63997L10.8869 5.63863L10.8837 5.79339" fill="#FDFDFD"/>
<path d="M11.1875 5.64027L10.9453 5.82108L10.8534 5.69781" fill="#FDFDFD"/>
<path d="M10.6177 5.63988L10.8599 5.82069L10.9518 5.69742" fill="#FDFDFD"/>
<path d="M10.6174 5.64003L10.9177 5.63869L10.921 5.79345" fill="#FDFDFD"/>
<path d="M11.0787 5.98019L10.9886 5.69019L10.8417 5.73586" fill="#FDFDFD"/>
<path d="M11.0792 5.98007L10.835 5.80354L10.9233 5.67602" fill="#FDFDFD"/>
<path d="M10.7254 5.98059L10.9697 5.8033L10.8821 5.67623" fill="#FDFDFD"/>
<path d="M10.7256 5.98041L10.8166 5.69031L10.963 5.7354" fill="#FDFDFD"/>
<path d="M10.9026 4.21521L10.8076 4.50384L10.9525 4.55447" fill="#FDFDFD"/>
<path d="M10.9024 4.21515L10.9973 4.50378L10.8524 4.55441" fill="#FDFDFD"/>
<path d="M11.1875 4.4247L10.8872 4.42335L10.884 4.57811" fill="#FDFDFD"/>
<path d="M11.1887 4.42479L10.9465 4.60561L10.8546 4.48233" fill="#FDFDFD"/>
<path d="M10.617 4.42461L10.8591 4.60542L10.9511 4.48215" fill="#FDFDFD"/>
<path d="M10.6174 4.42476L10.9177 4.42342L10.921 4.57818" fill="#FDFDFD"/>
<path d="M11.0787 4.76477L10.9886 4.47477L10.8417 4.52044" fill="#FDFDFD"/>
<path d="M11.0787 4.76474L10.8345 4.58821L10.9227 4.46069" fill="#FDFDFD"/>
<path d="M10.726 4.76502L10.9703 4.58772L10.8828 4.46065" fill="#FDFDFD"/>
<path d="M10.7267 4.76502L10.8177 4.47492L10.9641 4.52" fill="#FDFDFD"/>
<path d="M10.9026 3L10.8076 3.28863L10.9525 3.33926" fill="#FDFDFD"/>
<path d="M10.9024 3L10.9973 3.28863L10.8524 3.33926" fill="#FDFDFD"/>
<path d="M11.1877 3.20947L10.8874 3.20813L10.8842 3.36289" fill="#FDFDFD"/>
<path d="M11.1887 3.20958L10.9465 3.3904L10.8546 3.26712" fill="#FDFDFD"/>
<path d="M10.6177 3.20941L10.8599 3.39022L10.9518 3.26695" fill="#FDFDFD"/>
<path d="M10.618 3.20951L10.9183 3.20817L10.9215 3.36293" fill="#FDFDFD"/>
<path d="M11.0781 3.54945L10.988 3.25945L10.8411 3.30512" fill="#FDFDFD"/>
<path d="M11.0784 3.54939L10.8342 3.37286L10.9224 3.24534" fill="#FDFDFD"/>
<path d="M10.7255 3.54975L10.9698 3.37246L10.8822 3.24538" fill="#FDFDFD"/>
<path d="M10.7248 3.5495L10.8158 3.2594L10.9622 3.30449" fill="#FDFDFD"/>
<path d="M6.10349 5.43054L6.00854 5.71917L6.15346 5.7698" fill="#FDFDFD"/>
<path d="M6.1033 5.43054L6.19824 5.71917L6.05333 5.7698" fill="#FDFDFD"/>
<path d="M6.38868 5.64009L6.08837 5.63875L6.08515 5.79351" fill="#FDFDFD"/>
<path d="M6.38842 5.64024L6.14623 5.82106L6.05429 5.69779" fill="#FDFDFD"/>
<path d="M5.81813 5.64018L6.06031 5.821L6.15226 5.69773" fill="#FDFDFD"/>
<path d="M5.81859 5.64015L6.1189 5.63881L6.12213 5.79357" fill="#FDFDFD"/>
<path d="M6.28627 5.97995L6.19613 5.68995L6.04926 5.73562" fill="#FDFDFD"/>
<path d="M6.28625 5.97995L6.04208 5.80342L6.1303 5.6759" fill="#FDFDFD"/>
<path d="M5.93361 5.98035L6.17791 5.80305L6.09033 5.67598" fill="#FDFDFD"/>
<path d="M5.93406 5.98011L6.02506 5.69001L6.17145 5.73509" fill="#FDFDFD"/>
<path d="M7.30344 5.43054L7.2085 5.71917L7.35341 5.7698" fill="#FDFDFD"/>
<path d="M7.30325 5.43054L7.39819 5.71917L7.25328 5.7698" fill="#FDFDFD"/>
<path d="M7.58912 5.64009L7.28881 5.63875L7.28559 5.79351" fill="#FDFDFD"/>
<path d="M7.58886 5.64024L7.34667 5.82106L7.25473 5.69779" fill="#FDFDFD"/>
<path d="M7.01905 5.63977L7.26124 5.82058L7.35318 5.69731" fill="#FDFDFD"/>
<path d="M7.01958 5.64L7.31989 5.63865L7.32312 5.79341" fill="#FDFDFD"/>
<path d="M7.47926 5.97972L7.38913 5.68972L7.24225 5.73539" fill="#FDFDFD"/>
<path d="M7.48095 5.97996L7.23678 5.80343L7.32501 5.67591" fill="#FDFDFD"/>
<path d="M7.12746 5.98029L7.37175 5.80299L7.28418 5.67592" fill="#FDFDFD"/>
<path d="M7.12767 5.98011L7.21866 5.69001L7.36505 5.73509" fill="#FDFDFD"/>
<path d="M7.30442 4.21509L7.20947 4.50371L7.35439 4.55435" fill="#FDFDFD"/>
<path d="M7.30423 4.21509L7.39917 4.50371L7.25426 4.55435" fill="#FDFDFD"/>
<path d="M7.58857 4.42475L7.28826 4.42341L7.28504 4.57817" fill="#FDFDFD"/>
<path d="M7.58959 4.42491L7.34741 4.60573L7.25546 4.48246" fill="#FDFDFD"/>
<path d="M7.0196 4.42488L7.26179 4.6057L7.35373 4.48242" fill="#FDFDFD"/>
<path d="M7.01934 4.42467L7.31965 4.42332L7.32287 4.57808" fill="#FDFDFD"/>
<path d="M7.4795 4.76481L7.38937 4.47481L7.24249 4.52048" fill="#FDFDFD"/>
<path d="M7.48064 4.76458L7.23647 4.58805L7.3247 4.46053" fill="#FDFDFD"/>
<path d="M7.12562 4.76509L7.36992 4.5878L7.28235 4.46072" fill="#FDFDFD"/>
<path d="M7.12584 4.76485L7.21683 4.47475L7.36322 4.51983" fill="#FDFDFD"/>
</g>
</g>
<defs>
<clipPath id="clip0_272_418">
<rect width="24" height="24" rx="12" fill="white"/>
</clipPath>
<clipPath id="clip1_272_418">
<rect width="31.5791" height="24" fill="white" transform="translate(-4.5)"/>
</clipPath>
</defs>
</svg>
