<svg width="116" height="20" viewBox="0 0 116 20" fill="none" xmlns="http://www.w3.org/2000/svg">
<g clip-path="url(#clip0_315_101)">
<path d="M7.62769 4.50675C8.68353 2.61341 9.21103 1.66675 10.0002 1.66675C10.7894 1.66675 11.3169 2.61341 12.3727 4.50675L12.646 4.99675C12.946 5.53508 13.096 5.80425 13.3294 5.98175C13.5627 6.15925 13.8544 6.22508 14.4377 6.35675L14.9677 6.47675C17.0177 6.94091 18.0419 7.17258 18.286 7.95675C18.5294 8.74008 17.831 9.55758 16.4335 11.1917L16.0719 11.6142C15.6752 12.0784 15.476 12.3109 15.3869 12.5976C15.2977 12.8851 15.3277 13.1951 15.3877 13.8142L15.4427 14.3784C15.6535 16.5592 15.7594 17.6492 15.121 18.1334C14.4827 18.6176 13.5227 18.1759 11.6044 17.2926L11.1069 17.0642C10.5619 16.8126 10.2894 16.6876 10.0002 16.6876C9.71103 16.6876 9.43853 16.8126 8.89353 17.0642L8.39686 17.2926C6.47769 18.1759 5.51769 18.6176 4.88019 18.1342C4.24103 17.6492 4.34686 16.5592 4.55769 14.3784L4.61269 13.8151C4.67269 13.1951 4.70269 12.8851 4.61269 12.5984C4.52436 12.3109 4.32519 12.0784 3.92853 11.6151L3.56686 11.1917C2.16936 9.55842 1.47103 8.74092 1.71436 7.95675C1.95769 7.17258 2.98353 6.94008 5.03353 6.47675L5.56353 6.35675C6.14603 6.22508 6.43686 6.15925 6.67103 5.98175C6.90519 5.80425 7.05436 5.53508 7.35436 4.99675L7.62769 4.50675Z" fill="#FFED1A"/>
</g>
<path d="M31.6275 4.50663C32.6833 2.61329 33.2108 1.66663 34 1.66663C34.7892 1.66663 35.3167 2.61329 36.3725 4.50663L36.6458 4.99663C36.9458 5.53496 37.0958 5.80413 37.3292 5.98163C37.5625 6.15913 37.8542 6.22496 38.4375 6.35663L38.9675 6.47663C41.0175 6.94079 42.0417 7.17246 42.2858 7.95663C42.5292 8.73996 41.8308 9.55746 40.4333 11.1916L40.0717 11.6141C39.675 12.0783 39.4758 12.3108 39.3867 12.5975C39.2975 12.885 39.3275 13.195 39.3875 13.8141L39.4425 14.3783C39.6533 16.5591 39.7592 17.6491 39.1208 18.1333C38.4825 18.6175 37.5225 18.1758 35.6042 17.2925L35.1067 17.0641C34.5617 16.8125 34.2892 16.6875 34 16.6875C33.7108 16.6875 33.4383 16.8125 32.8933 17.0641L32.3967 17.2925C30.4775 18.1758 29.5175 18.6175 28.88 18.1341C28.2408 17.6491 28.3467 16.5591 28.5575 14.3783L28.6125 13.815C28.6725 13.195 28.7025 12.885 28.6125 12.5983C28.5242 12.3108 28.325 12.0783 27.9283 11.615L27.5667 11.1916C26.1692 9.55829 25.4708 8.74079 25.7142 7.95663C25.9575 7.17246 26.9833 6.93996 29.0333 6.47663L29.5633 6.35663C30.1458 6.22496 30.4367 6.15913 30.6708 5.98163C30.905 5.80413 31.0542 5.53496 31.3542 4.99663L31.6275 4.50663Z" fill="#FFED1A"/>
<path d="M55.6275 4.50663C56.6833 2.61329 57.2108 1.66663 58 1.66663C58.7892 1.66663 59.3167 2.61329 60.3725 4.50663L60.6458 4.99663C60.9458 5.53496 61.0958 5.80413 61.3292 5.98163C61.5625 6.15913 61.8542 6.22496 62.4375 6.35663L62.9675 6.47663C65.0175 6.94079 66.0417 7.17246 66.2858 7.95663C66.5292 8.73996 65.8308 9.55746 64.4333 11.1916L64.0717 11.6141C63.675 12.0783 63.4758 12.3108 63.3867 12.5975C63.2975 12.885 63.3275 13.195 63.3875 13.8141L63.4425 14.3783C63.6533 16.5591 63.7592 17.6491 63.1208 18.1333C62.4825 18.6175 61.5225 18.1758 59.6042 17.2925L59.1067 17.0641C58.5617 16.8125 58.2892 16.6875 58 16.6875C57.7108 16.6875 57.4383 16.8125 56.8933 17.0641L56.3967 17.2925C54.4775 18.1758 53.5175 18.6175 52.88 18.1341C52.2408 17.6491 52.3467 16.5591 52.5575 14.3783L52.6125 13.815C52.6725 13.195 52.7025 12.885 52.6125 12.5983C52.5242 12.3108 52.325 12.0783 51.9283 11.615L51.5667 11.1916C50.1692 9.55829 49.4708 8.74079 49.7142 7.95663C49.9575 7.17246 50.9833 6.93996 53.0333 6.47663L53.5633 6.35663C54.1458 6.22496 54.4367 6.15913 54.6708 5.98163C54.905 5.80413 55.0542 5.53496 55.3542 4.99663L55.6275 4.50663Z" fill="#FFED1A"/>
<path d="M79.6275 4.50663C80.6833 2.61329 81.2108 1.66663 82 1.66663C82.7892 1.66663 83.3167 2.61329 84.3725 4.50663L84.6458 4.99663C84.9458 5.53496 85.0958 5.80413 85.3292 5.98163C85.5625 6.15913 85.8542 6.22496 86.4375 6.35663L86.9675 6.47663C89.0175 6.94079 90.0417 7.17246 90.2858 7.95663C90.5292 8.73996 89.8308 9.55746 88.4333 11.1916L88.0717 11.6141C87.675 12.0783 87.4758 12.3108 87.3867 12.5975C87.2975 12.885 87.3275 13.195 87.3875 13.8141L87.4425 14.3783C87.6533 16.5591 87.7592 17.6491 87.1208 18.1333C86.4825 18.6175 85.5225 18.1758 83.6042 17.2925L83.1067 17.0641C82.5617 16.8125 82.2892 16.6875 82 16.6875C81.7108 16.6875 81.4383 16.8125 80.8933 17.0641L80.3967 17.2925C78.4775 18.1758 77.5175 18.6175 76.88 18.1341C76.2408 17.6491 76.3467 16.5591 76.5575 14.3783L76.6125 13.815C76.6725 13.195 76.7025 12.885 76.6125 12.5983C76.5242 12.3108 76.325 12.0783 75.9283 11.615L75.5667 11.1916C74.1692 9.55829 73.4708 8.74079 73.7142 7.95663C73.9575 7.17246 74.9833 6.93996 77.0333 6.47663L77.5633 6.35663C78.1458 6.22496 78.4367 6.15913 78.6708 5.98163C78.905 5.80413 79.0542 5.53496 79.3542 4.99663L79.6275 4.50663Z" fill="#FFED1A"/>
<path d="M103.628 4.50663C104.683 2.61329 105.211 1.66663 106 1.66663C106.789 1.66663 107.317 2.61329 108.373 4.50663L108.646 4.99663C108.946 5.53496 109.096 5.80413 109.329 5.98163C109.563 6.15913 109.854 6.22496 110.438 6.35663L110.968 6.47663C113.018 6.94079 114.042 7.17246 114.286 7.95663C114.529 8.73996 113.831 9.55746 112.433 11.1916L112.072 11.6141C111.675 12.0783 111.476 12.3108 111.387 12.5975C111.298 12.885 111.328 13.195 111.388 13.8141L111.443 14.3783C111.653 16.5591 111.759 17.6491 111.121 18.1333C110.483 18.6175 109.523 18.1758 107.604 17.2925L107.107 17.0641C106.562 16.8125 106.289 16.6875 106 16.6875C105.711 16.6875 105.438 16.8125 104.893 17.0641L104.397 17.2925C102.478 18.1758 101.518 18.6175 100.88 18.1341C100.241 17.6491 100.347 16.5591 100.558 14.3783L100.613 13.815C100.673 13.195 100.703 12.885 100.613 12.5983C100.524 12.3108 100.325 12.0783 99.9284 11.615L99.5667 11.1916C98.1692 9.55829 97.4709 8.74079 97.7142 7.95663C97.9575 7.17246 98.9834 6.93996 101.033 6.47663L101.563 6.35663C102.146 6.22496 102.437 6.15913 102.671 5.98163C102.905 5.80413 103.054 5.53496 103.354 4.99663L103.628 4.50663Z" fill="#E5E7EB"/>
<defs>
<clipPath id="clip0_315_101">
<rect width="20" height="20" fill="white"/>
</clipPath>
</defs>
</svg>
